<svg width="18" height="18" viewBox="0 0 18 18" fill="none" xmlns="http://www.w3.org/2000/svg">
<path d="M6.375 7.875L5.925 7.275C5.82281 7.35173 5.74191 7.4533 5.69 7.57007C5.63808 7.68685 5.61687 7.81495 5.62836 7.94222C5.63986 8.0695 5.68368 8.19173 5.75568 8.29731C5.82768 8.40289 5.92546 8.48832 6.03975 8.5455L6.375 7.875ZM9.375 9.375L10.1175 9.48075C10.1396 9.325 10.1122 9.16624 10.0391 9.02693C9.966 8.88763 9.85096 8.77483 9.71025 8.7045L9.375 9.375ZM8.2575 11.8942C8.24315 11.992 8.24824 12.0916 8.27248 12.1873C8.29672 12.283 8.33963 12.3731 8.39875 12.4522C8.45787 12.5313 8.53204 12.598 8.61699 12.6483C8.70194 12.6987 8.79601 12.7318 8.89379 12.7457C8.99157 12.7597 9.09114 12.7541 9.18677 12.7295C9.28241 12.7048 9.37224 12.6615 9.4511 12.6021C9.52996 12.5426 9.59629 12.4681 9.6463 12.383C9.69631 12.2978 9.729 12.2036 9.7425 12.1058L8.2575 11.8942ZM9.375 5.625L9.90525 5.09475C9.77761 4.9671 9.6082 4.88977 9.42814 4.87696C9.24808 4.86415 9.06943 4.91671 8.925 5.025L9.375 5.625ZM11.25 7.5L10.7198 8.03025C10.8604 8.17091 11.0511 8.24996 11.25 8.25V7.5ZM12.75 8.25C12.9489 8.25 13.1397 8.17098 13.2803 8.03033C13.421 7.88968 13.5 7.69891 13.5 7.5C13.5 7.30109 13.421 7.11032 13.2803 6.96967C13.1397 6.82902 12.9489 6.75 12.75 6.75V8.25ZM6 12C6 12.3978 5.84196 12.7794 5.56066 13.0607C5.27936 13.342 4.89782 13.5 4.5 13.5V15C5.29565 15 6.05871 14.6839 6.62132 14.1213C7.18393 13.5587 7.5 12.7956 7.5 12H6ZM4.5 13.5C4.10218 13.5 3.72064 13.342 3.43934 13.0607C3.15804 12.7794 3 12.3978 3 12H1.5C1.5 12.7956 1.81607 13.5587 2.37868 14.1213C2.94129 14.6839 3.70435 15 4.5 15V13.5ZM3 12C3 11.6022 3.15804 11.2206 3.43934 10.9393C3.72064 10.658 4.10218 10.5 4.5 10.5V9C3.70435 9 2.94129 9.31607 2.37868 9.87868C1.81607 10.4413 1.5 11.2044 1.5 12H3ZM4.5 10.5C4.89782 10.5 5.27936 10.658 5.56066 10.9393C5.84196 11.2206 6 11.6022 6 12H7.5C7.5 11.2044 7.18393 10.4413 6.62132 9.87868C6.05871 9.31607 5.29565 9 4.5 9V10.5ZM6.03975 8.5455L9.03975 10.0455L9.71025 8.7045L6.71025 7.2045L6.03975 8.5455ZM8.6325 9.26925L8.2575 11.8942L9.7425 12.1058L10.1175 9.48075L8.6325 9.26925ZM6.825 8.475L9.825 6.225L8.925 5.025L5.925 7.275L6.825 8.475ZM8.84475 6.15525L10.7198 8.03025L11.7802 6.96975L9.90525 5.09475L8.84475 6.15525ZM11.25 8.25H12.75V6.75H11.25V8.25ZM15 12C15 12.3978 14.842 12.7794 14.5607 13.0607C14.2794 13.342 13.8978 13.5 13.5 13.5V15C14.2956 15 15.0587 14.6839 15.6213 14.1213C16.1839 13.5587 16.5 12.7956 16.5 12H15ZM13.5 13.5C13.1022 13.5 12.7206 13.342 12.4393 13.0607C12.158 12.7794 12 12.3978 12 12H10.5C10.5 12.7956 10.8161 13.5587 11.3787 14.1213C11.9413 14.6839 12.7044 15 13.5 15V13.5ZM12 12C12 11.6022 12.158 11.2206 12.4393 10.9393C12.7206 10.658 13.1022 10.5 13.5 10.5V9C12.7044 9 11.9413 9.31607 11.3787 9.87868C10.8161 10.4413 10.5 11.2044 10.5 12H12ZM13.5 10.5C13.8978 10.5 14.2794 10.658 14.5607 10.9393C14.842 11.2206 15 11.6022 15 12H16.5C16.5 11.2044 16.1839 10.4413 15.6213 9.87868C15.0587 9.31607 14.2956 9 13.5 9V10.5ZM11.25 3.75V5.25C11.6478 5.25 12.0294 5.09196 12.3107 4.81066C12.592 4.52936 12.75 4.14782 12.75 3.75H11.25ZM11.25 3.75H9.75C9.75 4.14782 9.90804 4.52936 10.1893 4.81066C10.4706 5.09196 10.8522 5.25 11.25 5.25V3.75ZM11.25 3.75V2.25C10.8522 2.25 10.4706 2.40804 10.1893 2.68934C9.90804 2.97064 9.75 3.35218 9.75 3.75H11.25ZM11.25 3.75H12.75C12.75 3.35218 12.592 2.97064 12.3107 2.68934C12.0294 2.40804 11.6478 2.25 11.25 2.25V3.75Z" fill="#19196F"/>
</svg>
